<mxfile host="65bd71144e">
    <diagram id="LOUrAPUgCpEC1m0UZpSd" name="GCP Environment Design">
        <mxGraphModel dx="1412" dy="867" grid="0" gridSize="10" guides="1" tooltips="1" connect="1" arrows="1" fold="1" page="0" pageScale="1" pageWidth="827" pageHeight="1169" math="0" shadow="0">
            <root>
                <mxCell id="0"/>
                <mxCell id="1" parent="0"/>
                <mxCell id="HVvqOh5JV6hJumbIVyiA-7" value="Application Project" style="rounded=0;whiteSpace=wrap;html=1;verticalAlign=top;fillColor=none;strokeColor=#d6b656;" parent="1" vertex="1">
                    <mxGeometry x="26" y="295" width="678" height="481" as="geometry"/>
                </mxCell>
                <mxCell id="wyDShIIO190zMu4N66vU-3" value="Main Network VPC" style="rounded=0;whiteSpace=wrap;html=1;verticalAlign=top;fillColor=none;strokeColor=#d6b656;" parent="1" vertex="1">
                    <mxGeometry x="39" y="355" width="472" height="389" as="geometry"/>
                </mxCell>
                <mxCell id="wyDShIIO190zMu4N66vU-11" value="" style="endArrow=none;dashed=1;html=1;rounded=0;startArrow=none;" parent="1" source="wyDShIIO190zMu4N66vU-12" edge="1">
                    <mxGeometry width="50" height="50" relative="1" as="geometry">
                        <mxPoint x="-75" y="80" as="sourcePoint"/>
                        <mxPoint x="139.04915254237335" y="166" as="targetPoint"/>
                    </mxGeometry>
                </mxCell>
                <mxCell id="wyDShIIO190zMu4N66vU-12" value="tf provider project, provides access to GCP APIs to Terraform" style="rounded=0;whiteSpace=wrap;html=1;fillColor=none;" parent="1" vertex="1">
                    <mxGeometry x="-167" y="43" width="143" height="60" as="geometry"/>
                </mxCell>
                <mxCell id="HVvqOh5JV6hJumbIVyiA-2" value="dev-app-subnet" style="rounded=0;whiteSpace=wrap;html=1;fontSize=17;verticalAlign=top;" parent="1" vertex="1">
                    <mxGeometry x="87.5" y="472" width="375" height="70" as="geometry"/>
                </mxCell>
                <mxCell id="HVvqOh5JV6hJumbIVyiA-3" value="shared-service-subnet" style="rounded=0;whiteSpace=wrap;html=1;fontSize=17;verticalAlign=top;" parent="1" vertex="1">
                    <mxGeometry x="87.5" y="643" width="375" height="72" as="geometry"/>
                </mxCell>
                <mxCell id="HVvqOh5JV6hJumbIVyiA-4" value="Cloud Build Service Provider VPC (GCP)" style="rounded=0;whiteSpace=wrap;html=1;verticalAlign=top;fillColor=none;strokeColor=#00CC00;" parent="1" vertex="1">
                    <mxGeometry x="-340" y="355" width="262" height="308" as="geometry"/>
                </mxCell>
                <mxCell id="HVvqOh5JV6hJumbIVyiA-5" value="peered" style="endArrow=none;dashed=1;html=1;fontSize=17;verticalAlign=bottom;entryX=0.003;entryY=0.395;entryDx=0;entryDy=0;entryPerimeter=0;" parent="1" source="HVvqOh5JV6hJumbIVyiA-4" target="wyDShIIO190zMu4N66vU-3" edge="1">
                    <mxGeometry width="50" height="50" relative="1" as="geometry">
                        <mxPoint x="-70" y="343" as="sourcePoint"/>
                        <mxPoint x="-20" y="293" as="targetPoint"/>
                    </mxGeometry>
                </mxCell>
                <mxCell id="HVvqOh5JV6hJumbIVyiA-6" value="Cloud Build private worker pool" style="rounded=0;whiteSpace=wrap;html=1;fontSize=12;strokeColor=#00CC00;" parent="1" vertex="1">
                    <mxGeometry x="-269" y="428" width="120" height="84" as="geometry"/>
                </mxCell>
                <mxCell id="HVvqOh5JV6hJumbIVyiA-8" value="prod-app-subnet" style="rounded=0;whiteSpace=wrap;html=1;fontSize=17;verticalAlign=top;" parent="1" vertex="1">
                    <mxGeometry x="87.5" y="552" width="375" height="77" as="geometry"/>
                </mxCell>
                <mxCell id="ITrV6vT7_7o8E8OxS9Hk-3" value="Terraform &#10;Backend&#10;Bucket" style="editableCssRules=.*;shape=image;verticalLabelPosition=bottom;labelBackgroundColor=none;verticalAlign=top;aspect=fixed;imageAspect=0;image=data:image/svg+xml,PHN2ZyB4bWxucz0iaHR0cDovL3d3dy53My5vcmcvMjAwMC9zdmciIHhtbG5zOnY9Imh0dHBzOi8vdmVjdGEuaW8vbmFubyIgd2lkdGg9IjIwIiBoZWlnaHQ9IjE2IiB2aWV3Qm94PSIwIDAgMjAgMTYiPiYjeGE7CTxzdHlsZSB0eXBlPSJ0ZXh0L2NzcyI+JiN4YTsJLnN0MHtmaWxsOiM0Mjg1ZjQ7fSYjeGE7CS5zdDF7ZmlsbDojNjY5ZGY2O30mI3hhOwkuc3Qye2ZpbGw6I2FlY2JmYTt9JiN4YTsJLnN0M3tmaWxsOiNmZmY7fSYjeGE7CTwvc3R5bGU+JiN4YTsJPHBhdGggY2xhc3M9InN0MiIgZD0iTTAgMGgyMHY3SDB6Ii8+JiN4YTsJPHBhdGggY2xhc3M9InN0MSIgZD0iTTE4IDBoMnY3aC0yeiIvPiYjeGE7CTxwYXRoIGNsYXNzPSJzdDAiIGQ9Ik0xOCA3bDItN2gtMnoiLz4mI3hhOwk8cGF0aCBjbGFzcz0ic3QxIiBkPSJNMCAwaDJ2N0gweiIvPiYjeGE7CTxnIGNsYXNzPSJzdDMiPiYjeGE7CQk8cGF0aCBkPSJNNCAzaDZ2MUg0eiIvPiYjeGE7CQk8cmVjdCB4PSIxMyIgeT0iMiIgd2lkdGg9IjMiIGhlaWdodD0iMyIgcng9IjEuNSIvPiYjeGE7CTwvZz4mI3hhOwk8cGF0aCBjbGFzcz0ic3QyIiBkPSJNMCA5aDIwdjdIMHoiLz4mI3hhOwk8cGF0aCBjbGFzcz0ic3QxIiBkPSJNMTggOWgydjdoLTJ6Ii8+JiN4YTsJPHBhdGggY2xhc3M9InN0MCIgZD0iTTE4IDE2bDItN2gtMnoiLz4mI3hhOwk8cGF0aCBjbGFzcz0ic3QxIiBkPSJNMCA5aDJ2N0gweiIvPiYjeGE7CTxnIGNsYXNzPSJzdDMiPiYjeGE7CQk8cGF0aCBkPSJNNCAxMmg2djFINHoiLz4mI3hhOwkJPHJlY3QgeD0iMTMiIHk9IjExIiB3aWR0aD0iMyIgaGVpZ2h0PSIzIiByeD0iMS41Ii8+JiN4YTsJPC9nPiYjeGE7PC9zdmc+;fontSize=12;strokeColor=#00CC00;" parent="1" vertex="1">
                    <mxGeometry x="590" y="355" width="40" height="32" as="geometry"/>
                </mxCell>
                <mxCell id="ITrV6vT7_7o8E8OxS9Hk-4" value="CloudBuild&#10;Trigger" style="editableCssRules=.*;shape=image;verticalLabelPosition=bottom;labelBackgroundColor=none;verticalAlign=top;aspect=fixed;imageAspect=0;image=data:image/svg+xml,PHN2ZyB4bWxucz0iaHR0cDovL3d3dy53My5vcmcvMjAwMC9zdmciIHhtbG5zOnY9Imh0dHBzOi8vdmVjdGEuaW8vbmFubyIgd2lkdGg9IjE3LjMyOTk5OTkyMzcwNjA1NSIgaGVpZ2h0PSIxOS42MTAwMDA2MTAzNTE1NjIiIHZpZXdCb3g9IjAgMCAxNy4zMjk5OTk5MjM3MDYwNTUgMTkuNjEwMDAwNjEwMzUxNTYyIj4mI3hhOwk8c3R5bGUgdHlwZT0idGV4dC9jc3MiPiYjeGE7CS5zdDB7ZmlsbDojNDI4NWY0O30mI3hhOwkuc3Qxe2ZpbGw6IzY2OWRmNjt9JiN4YTsJLnN0MntmaWxsOiNhZWNiZmE7fSYjeGE7CTwvc3R5bGU+JiN4YTsJPHBhdGggY2xhc3M9InN0MCIgZD0iTTEyLjE4IDcuOThMMTEgNy4yOWwtMy41MiA2LjEgMS4xOC42OCAzLjUyLTIuMDN6IiBmaWxsPSIjNDI4NWY0Ii8+JiN4YTsJPHBhdGggY2xhc3M9InN0MSIgZD0iTTYuMzIgMTIuNzJsMy41My02LjA5LTEuMTktLjY5LTMuNTIgMi4wNHY0LjA2eiIgZmlsbD0iIzY2OWRmNiIvPiYjeGE7CTxwYXRoIGNsYXNzPSJzdDIiIGQ9Ik0zLjc1IDcuOThMMCA1LjgxdjkuMmw3Ljk3IDQuNnYtNC4zM2wtNC4yMi0yLjQ0em05LjEzLTEuMmwzLjc2LTIuMTdMOC42NiAwIC42OCA0LjYxbDMuNzYgMi4xNyA0LjIyLTIuNDR6TTkuMzUgMTkuNjFsNy45OC00LjZ2LTkuMmwtMy43NiAyLjE3djQuODZsLTQuMjIgMi40NHoiIGZpbGw9IiNhZWNiZmEiLz4mI3hhOzwvc3ZnPg==;fontSize=12;strokeColor=#00CC00;" parent="1" vertex="1">
                    <mxGeometry x="590" y="460" width="40" height="47.06" as="geometry"/>
                </mxCell>
                <mxCell id="ITrV6vT7_7o8E8OxS9Hk-5" value="CloudSource &#10;Repository&#10;(GitHub mirrored)" style="editableCssRules=.*;shape=image;verticalLabelPosition=bottom;labelBackgroundColor=none;verticalAlign=top;aspect=fixed;imageAspect=0;image=data:image/svg+xml,PHN2ZyB4bWxucz0iaHR0cDovL3d3dy53My5vcmcvMjAwMC9zdmciIHhtbG5zOnY9Imh0dHBzOi8vdmVjdGEuaW8vbmFubyIgd2lkdGg9IjQyNCIgaGVpZ2h0PSI0MjQiIHZpZXdCb3g9IjAgMCA0MjQgNDI0Ij4mI3hhOwk8c3R5bGUgdHlwZT0idGV4dC9jc3MiPiYjeGE7CS5zdDB7ZmlsbDojNDI4NWY0O30mI3hhOwk8L3N0eWxlPiYjeGE7CTxwYXRoIGNsYXNzPSJzdDAiIGQ9Ik00MjQgMHY0MjRIMFYwek0yMTIgOTcuODQ2Yy0zNy44ODQgMC03MC4xNjQgMjMuOTktODIuNDc4IDU3LjYwOGgwbC0zLjQwMy4wMDFjLTQyLjYzNCAwLTc3LjE5NiAzNC41NjItNzcuMTk2IDc3LjE5NnMzNC41NjIgNzcuMTk2IDc3LjE5NiA3Ny4xOTZoMCAxNzEuNzYzYzQyLjYzNCAwIDc3LjE5Ni0zNC41NjIgNzcuMTk2LTc3LjE5NnMtMzQuNTYyLTc3LjE5Ni03Ny4xOTYtNzcuMTk2aDBsLTMuNDAzLS4wMDFDMjgyLjE2NCAxMjEuODM3IDI0OS44ODQgOTcuODQ2IDIxMiA5Ny44NDZ6IiBmaWxsLXJ1bGU9ImV2ZW5vZGQiLz4mI3hhOzwvc3ZnPg==;fontSize=12;strokeColor=#00CC00;" parent="1" vertex="1">
                    <mxGeometry x="590" y="576" width="40" height="40" as="geometry"/>
                </mxCell>
                <mxCell id="ITrV6vT7_7o8E8OxS9Hk-7" value="&lt;b&gt;TF Provider Project&lt;/b&gt;&lt;br&gt;(nimble-crane-361419)" style="fillColor=#F6F6F6;strokeColor=none;shadow=0;gradientColor=none;fontSize=14;align=left;spacing=10;fontColor=#717171;9E9E9E;verticalAlign=top;spacingTop=-4;fontStyle=0;spacingLeft=40;html=1;labelBackgroundColor=none;" parent="1" vertex="1">
                    <mxGeometry x="26" y="184" width="678" height="94" as="geometry"/>
                </mxCell>
                <mxCell id="ITrV6vT7_7o8E8OxS9Hk-8" value="" style="shape=mxgraph.gcp2.google_cloud_platform;fillColor=#F6F6F6;strokeColor=none;shadow=0;gradientColor=none;labelBackgroundColor=none;fontSize=12;" parent="ITrV6vT7_7o8E8OxS9Hk-7" vertex="1">
                    <mxGeometry width="23" height="20" relative="1" as="geometry">
                        <mxPoint x="20" y="10" as="offset"/>
                    </mxGeometry>
                </mxCell>
            </root>
        </mxGraphModel>
    </diagram>
    <diagram id="57hVKCf9jY1qDtaprtsc" name="Strap Process Overview">
        <mxGraphModel dx="1182" dy="1267" grid="0" gridSize="10" guides="1" tooltips="1" connect="1" arrows="1" fold="1" page="0" pageScale="1" pageWidth="850" pageHeight="1100" math="0" shadow="0">
            <root>
                <mxCell id="CH_A4WT9boCnO-b7Q_JN-0"/>
                <mxCell id="CH_A4WT9boCnO-b7Q_JN-1" parent="CH_A4WT9boCnO-b7Q_JN-0"/>
                <mxCell id="CH_A4WT9boCnO-b7Q_JN-5" style="edgeStyle=orthogonalEdgeStyle;html=1;" parent="CH_A4WT9boCnO-b7Q_JN-1" source="CH_A4WT9boCnO-b7Q_JN-2" target="CH_A4WT9boCnO-b7Q_JN-3" edge="1">
                    <mxGeometry relative="1" as="geometry"/>
                </mxCell>
                <mxCell id="CH_A4WT9boCnO-b7Q_JN-7" style="edgeStyle=orthogonalEdgeStyle;html=1;" parent="CH_A4WT9boCnO-b7Q_JN-1" source="CH_A4WT9boCnO-b7Q_JN-2" target="CH_A4WT9boCnO-b7Q_JN-6" edge="1">
                    <mxGeometry relative="1" as="geometry">
                        <Array as="points">
                            <mxPoint x="192" y="177"/>
                            <mxPoint x="192" y="297"/>
                        </Array>
                    </mxGeometry>
                </mxCell>
                <mxCell id="CH_A4WT9boCnO-b7Q_JN-2" value="strap &amp;lt;project&amp;gt;" style="rounded=0;whiteSpace=wrap;html=1;" parent="CH_A4WT9boCnO-b7Q_JN-1" vertex="1">
                    <mxGeometry x="55" y="147" width="120" height="60" as="geometry"/>
                </mxCell>
                <mxCell id="CH_A4WT9boCnO-b7Q_JN-11" style="edgeStyle=orthogonalEdgeStyle;html=1;" parent="CH_A4WT9boCnO-b7Q_JN-1" source="CH_A4WT9boCnO-b7Q_JN-3" target="CH_A4WT9boCnO-b7Q_JN-8" edge="1">
                    <mxGeometry relative="1" as="geometry"/>
                </mxCell>
                <mxCell id="CH_A4WT9boCnO-b7Q_JN-3" value="create local filesystem" style="rounded=0;whiteSpace=wrap;html=1;" parent="CH_A4WT9boCnO-b7Q_JN-1" vertex="1">
                    <mxGeometry x="216" y="147" width="120" height="60" as="geometry"/>
                </mxCell>
                <mxCell id="CH_A4WT9boCnO-b7Q_JN-26" style="edgeStyle=orthogonalEdgeStyle;html=1;entryX=0.5;entryY=1;entryDx=0;entryDy=0;" parent="CH_A4WT9boCnO-b7Q_JN-1" source="CH_A4WT9boCnO-b7Q_JN-6" target="CH_A4WT9boCnO-b7Q_JN-24" edge="1">
                    <mxGeometry relative="1" as="geometry"/>
                </mxCell>
                <mxCell id="CH_A4WT9boCnO-b7Q_JN-6" value="create github repository" style="rounded=0;whiteSpace=wrap;html=1;" parent="CH_A4WT9boCnO-b7Q_JN-1" vertex="1">
                    <mxGeometry x="216" y="267" width="120" height="60" as="geometry"/>
                </mxCell>
                <mxCell id="CH_A4WT9boCnO-b7Q_JN-15" style="edgeStyle=orthogonalEdgeStyle;html=1;" parent="CH_A4WT9boCnO-b7Q_JN-1" source="CH_A4WT9boCnO-b7Q_JN-8" target="CH_A4WT9boCnO-b7Q_JN-14" edge="1">
                    <mxGeometry relative="1" as="geometry"/>
                </mxCell>
                <mxCell id="CH_A4WT9boCnO-b7Q_JN-8" value="setup terraform templates in filesystem" style="rounded=0;whiteSpace=wrap;html=1;" parent="CH_A4WT9boCnO-b7Q_JN-1" vertex="1">
                    <mxGeometry x="394" y="147" width="120" height="60" as="geometry"/>
                </mxCell>
                <mxCell id="CH_A4WT9boCnO-b7Q_JN-19" value="" style="edgeStyle=orthogonalEdgeStyle;html=1;" parent="CH_A4WT9boCnO-b7Q_JN-1" source="CH_A4WT9boCnO-b7Q_JN-14" target="CH_A4WT9boCnO-b7Q_JN-18" edge="1">
                    <mxGeometry relative="1" as="geometry"/>
                </mxCell>
                <mxCell id="CH_A4WT9boCnO-b7Q_JN-14" value="authenticate to gcp host project" style="rounded=0;whiteSpace=wrap;html=1;" parent="CH_A4WT9boCnO-b7Q_JN-1" vertex="1">
                    <mxGeometry x="572" y="147" width="120" height="60" as="geometry"/>
                </mxCell>
                <mxCell id="CH_A4WT9boCnO-b7Q_JN-21" value="" style="edgeStyle=orthogonalEdgeStyle;html=1;" parent="CH_A4WT9boCnO-b7Q_JN-1" source="CH_A4WT9boCnO-b7Q_JN-18" target="CH_A4WT9boCnO-b7Q_JN-20" edge="1">
                    <mxGeometry relative="1" as="geometry"/>
                </mxCell>
                <mxCell id="CH_A4WT9boCnO-b7Q_JN-18" value="create gcp project" style="rounded=0;whiteSpace=wrap;html=1;" parent="CH_A4WT9boCnO-b7Q_JN-1" vertex="1">
                    <mxGeometry x="750" y="147" width="120" height="60" as="geometry"/>
                </mxCell>
                <mxCell id="CH_A4WT9boCnO-b7Q_JN-23" value="" style="edgeStyle=orthogonalEdgeStyle;html=1;" parent="CH_A4WT9boCnO-b7Q_JN-1" source="CH_A4WT9boCnO-b7Q_JN-20" target="CH_A4WT9boCnO-b7Q_JN-22" edge="1">
                    <mxGeometry relative="1" as="geometry"/>
                </mxCell>
                <mxCell id="CH_A4WT9boCnO-b7Q_JN-20" value="create terraform backend" style="rounded=0;whiteSpace=wrap;html=1;" parent="CH_A4WT9boCnO-b7Q_JN-1" vertex="1">
                    <mxGeometry x="928" y="147" width="120" height="60" as="geometry"/>
                </mxCell>
                <mxCell id="CH_A4WT9boCnO-b7Q_JN-25" value="" style="edgeStyle=orthogonalEdgeStyle;html=1;" parent="CH_A4WT9boCnO-b7Q_JN-1" source="CH_A4WT9boCnO-b7Q_JN-22" target="CH_A4WT9boCnO-b7Q_JN-24" edge="1">
                    <mxGeometry relative="1" as="geometry"/>
                </mxCell>
                <mxCell id="CH_A4WT9boCnO-b7Q_JN-22" value="tf deploy cloudsource repository creator" style="rounded=0;whiteSpace=wrap;html=1;" parent="CH_A4WT9boCnO-b7Q_JN-1" vertex="1">
                    <mxGeometry x="1106" y="147" width="120" height="60" as="geometry"/>
                </mxCell>
                <mxCell id="CH_A4WT9boCnO-b7Q_JN-31" style="edgeStyle=orthogonalEdgeStyle;html=1;" parent="CH_A4WT9boCnO-b7Q_JN-1" source="CH_A4WT9boCnO-b7Q_JN-24" target="CH_A4WT9boCnO-b7Q_JN-30" edge="1">
                    <mxGeometry relative="1" as="geometry"/>
                </mxCell>
                <mxCell id="CH_A4WT9boCnO-b7Q_JN-24" value="call cloudsource repository creator" style="rounded=0;whiteSpace=wrap;html=1;" parent="CH_A4WT9boCnO-b7Q_JN-1" vertex="1">
                    <mxGeometry x="1284" y="147" width="120" height="60" as="geometry"/>
                </mxCell>
                <mxCell id="CH_A4WT9boCnO-b7Q_JN-33" style="edgeStyle=orthogonalEdgeStyle;html=1;" parent="CH_A4WT9boCnO-b7Q_JN-1" source="CH_A4WT9boCnO-b7Q_JN-30" target="CH_A4WT9boCnO-b7Q_JN-32" edge="1">
                    <mxGeometry relative="1" as="geometry"/>
                </mxCell>
                <mxCell id="CH_A4WT9boCnO-b7Q_JN-30" value="write cloudbuild yaml" style="rounded=0;whiteSpace=wrap;html=1;" parent="CH_A4WT9boCnO-b7Q_JN-1" vertex="1">
                    <mxGeometry x="1462" y="147" width="120" height="60" as="geometry"/>
                </mxCell>
                <mxCell id="CH_A4WT9boCnO-b7Q_JN-35" style="edgeStyle=orthogonalEdgeStyle;html=1;" parent="CH_A4WT9boCnO-b7Q_JN-1" source="CH_A4WT9boCnO-b7Q_JN-32" target="CH_A4WT9boCnO-b7Q_JN-34" edge="1">
                    <mxGeometry relative="1" as="geometry"/>
                </mxCell>
                <mxCell id="CH_A4WT9boCnO-b7Q_JN-32" value="create cloudbuild trigger" style="rounded=0;whiteSpace=wrap;html=1;" parent="CH_A4WT9boCnO-b7Q_JN-1" vertex="1">
                    <mxGeometry x="1640" y="147" width="120" height="60" as="geometry"/>
                </mxCell>
                <mxCell id="CH_A4WT9boCnO-b7Q_JN-34" value="push terraform to remote/main" style="rounded=0;whiteSpace=wrap;html=1;" parent="CH_A4WT9boCnO-b7Q_JN-1" vertex="1">
                    <mxGeometry x="1818" y="147" width="120" height="60" as="geometry"/>
                </mxCell>
                <mxCell id="CH_A4WT9boCnO-b7Q_JN-36" value="" style="endArrow=none;dashed=1;html=1;dashPattern=1 3;strokeWidth=2;exitX=0.5;exitY=0;exitDx=0;exitDy=0;entryX=0.5;entryY=1;entryDx=0;entryDy=0;" parent="CH_A4WT9boCnO-b7Q_JN-1" source="CH_A4WT9boCnO-b7Q_JN-22" target="CH_A4WT9boCnO-b7Q_JN-37" edge="1">
                    <mxGeometry width="50" height="50" relative="1" as="geometry">
                        <mxPoint x="1296" y="84" as="sourcePoint"/>
                        <mxPoint x="1346" y="34" as="targetPoint"/>
                    </mxGeometry>
                </mxCell>
                <mxCell id="CH_A4WT9boCnO-b7Q_JN-37" value="&lt;h1&gt;&lt;span style=&quot;font-size: 17px&quot;&gt;cloudsource repository creator&lt;/span&gt;&lt;/h1&gt;&lt;p&gt;cloudrun hosted python+selenium tool to created a cloudsource repository mirrored with github&lt;/p&gt;" style="text;html=1;strokeColor=none;fillColor=none;spacing=5;spacingTop=-20;whiteSpace=wrap;overflow=hidden;rounded=0;" parent="CH_A4WT9boCnO-b7Q_JN-1" vertex="1">
                    <mxGeometry x="1048" y="-78" width="260" height="99" as="geometry"/>
                </mxCell>
                <mxCell id="CH_A4WT9boCnO-b7Q_JN-38" value="" style="endArrow=none;dashed=1;html=1;dashPattern=1 3;strokeWidth=2;exitX=0.5;exitY=0;exitDx=0;exitDy=0;entryX=0.5;entryY=1;entryDx=0;entryDy=0;" parent="CH_A4WT9boCnO-b7Q_JN-1" source="CH_A4WT9boCnO-b7Q_JN-24" target="CH_A4WT9boCnO-b7Q_JN-37" edge="1">
                    <mxGeometry width="50" height="50" relative="1" as="geometry">
                        <mxPoint x="1176" y="157" as="sourcePoint"/>
                        <mxPoint x="1187.9999999999998" y="30.999999999999886" as="targetPoint"/>
                    </mxGeometry>
                </mxCell>
                <mxCell id="CH_A4WT9boCnO-b7Q_JN-39" value="&lt;h1&gt;&lt;span style=&quot;font-size: 17px&quot;&gt;cloudbuild.yaml&amp;nbsp;&lt;/span&gt;&lt;/h1&gt;&lt;p&gt;cloudbuild configuration for build steps, recursively deploy each dev environment on push to feature branch, deploy prod environments on PR approved into main&lt;/p&gt;" style="text;html=1;strokeColor=none;fillColor=none;spacing=5;spacingTop=-20;whiteSpace=wrap;overflow=hidden;rounded=0;" parent="CH_A4WT9boCnO-b7Q_JN-1" vertex="1">
                    <mxGeometry x="1449" y="-78" width="260" height="122" as="geometry"/>
                </mxCell>
                <mxCell id="CH_A4WT9boCnO-b7Q_JN-40" value="" style="endArrow=none;dashed=1;html=1;dashPattern=1 3;strokeWidth=2;exitX=0.5;exitY=0;exitDx=0;exitDy=0;entryX=0.5;entryY=1;entryDx=0;entryDy=0;" parent="CH_A4WT9boCnO-b7Q_JN-1" source="CH_A4WT9boCnO-b7Q_JN-30" target="CH_A4WT9boCnO-b7Q_JN-39" edge="1">
                    <mxGeometry width="50" height="50" relative="1" as="geometry">
                        <mxPoint x="1354" y="157" as="sourcePoint"/>
                        <mxPoint x="1188" y="31" as="targetPoint"/>
                    </mxGeometry>
                </mxCell>
            </root>
        </mxGraphModel>
    </diagram>
</mxfile>